<svg width="800" height="277" viewBox="0 0 800 277" fill="none" xmlns="http://www.w3.org/2000/svg">
<path d="M209.808 68H244.635L178.648 162.792V205.126H145.654V159.111L209.808 68Z" fill="black"/>
<path d="M76 68H117.242L159.937 127.548L142.904 151.748L76 68Z" fill="black"/>
<path d="M217.14 149.907L231.804 129.661H303.291V150.828L217.14 149.907Z" fill="black"/>
<path d="M209.808 68H244.635L178.648 162.792V205.126H145.654V159.111L209.808 68Z" stroke="black"/>
<path d="M76 68H117.242L159.937 127.548L142.904 151.748L76 68Z" stroke="black"/>
<path d="M217.14 149.907L231.804 129.661H303.291V150.828L217.14 149.907Z" stroke="black"/>
<path d="M329.589 68V207.004H433.842V184.463H360.583V68H329.589Z" fill="black"/>
<path d="M451.687 207.004H479.864V113.082H451.687V207.004Z" fill="black"/>
<path d="M451.687 92.4197H479.864V68H451.687V92.4197Z" fill="black"/>
<path d="M609.476 68V207.004H637.653V157.226V68H609.476Z" fill="black"/>
<path d="M688.37 113.082L637.653 157.226L686.492 207.004H725L673.343 157.226L722.182 113.082H688.37Z" fill="black"/>
<path d="M637.653 157.226V68H609.476V207.004H637.653V157.226ZM637.653 157.226L688.37 113.082H722.182L673.343 157.226L725 207.004H686.492L637.653 157.226ZM329.589 68V207.004H433.842V184.463H360.583V68H329.589ZM451.687 207.004H479.864V113.082H451.687V207.004ZM451.687 92.4197H479.864V68H451.687V92.4197Z" stroke="black"/>
<g clip-path="url(#clip0_1_3)">
<path d="M527.758 152.67V206.088H496.77V112.424H526.237V129.62H527.315C529.469 123.888 533.145 119.396 538.341 116.143C543.537 112.85 549.727 111.204 556.909 111.204C563.753 111.204 569.688 112.688 574.716 115.656C579.785 118.583 583.714 122.688 586.503 127.973C589.333 133.218 590.727 139.356 590.685 146.389V206.088H559.697V152.243C559.739 147.04 558.366 142.974 555.578 140.047C552.832 137.12 549.008 135.657 544.108 135.657C540.855 135.657 537.982 136.348 535.489 137.73C533.039 139.072 531.138 141.003 529.786 143.523C528.476 146.044 527.8 149.093 527.758 152.67Z" fill="black"/>
</g>
<defs>
<clipPath id="clip0_1_3">
<rect width="93.9219" height="95.8003" fill="white" transform="translate(496.77 111.204)"/>
</clipPath>
</defs>
</svg>
